<?xml version="1.0" standalone="no"?>
<!DOCTYPE svg PUBLIC "-//W3C//DTD SVG 20010904//EN"
 "http://www.w3.org/TR/2001/REC-SVG-20010904/DTD/svg10.dtd">
<svg version="1.0" xmlns="http://www.w3.org/2000/svg"
 width="16.000000pt" height="16.000000pt" viewBox="0 0 16.000000 16.000000"
 preserveAspectRatio="xMidYMid meet">
<metadata>
Created by potrace 1.11, written by Peter Selinger 2001-2013
</metadata>
<g transform="translate(0.000000,16.000000) scale(0.005333,-0.005333)"
fill="#000000" stroke="none">
<path d="M1285 2900 c-4 -6 6 -10 22 -10 22 0 25 2 13 10 -19 12 -27 12 -35 0z"/>
<path d="M1340 2901 c0 -5 12 -7 27 -5 39 7 42 14 5 14 -18 0 -32 -4 -32 -9z"/>
<path d="M1411 2906 c7 -8 198 -10 205 -3 4 4 -41 7 -101 7 -60 0 -106 -2
-104 -4z"/>
<path d="M1636 2902 c-3 -6 12 -12 34 -14 22 -2 40 0 40 4 0 5 -9 8 -19 8 -11
0 -26 3 -34 6 -8 3 -18 1 -21 -4z"/>
<path d="M1240 2892 c0 -5 7 -9 15 -9 8 0 15 4 15 9 0 4 -7 8 -15 8 -8 0 -15
-4 -15 -8z"/>
<path d="M1155 2880 c-3 -5 -1 -10 4 -10 6 0 11 5 11 10 0 6 -2 10 -4 10 -3 0
-8 -4 -11 -10z"/>
<path d="M1180 2879 c0 -4 11 -6 25 -5 14 0 25 4 25 8 0 4 -11 7 -25 6 -14 -1
-25 -5 -25 -9z"/>
<path d="M1722 2885 c3 -3 25 -7 49 -10 32 -4 38 -2 24 4 -21 10 -82 15 -73 6z"/>
<path d="M1100 2868 c0 -3 9 -6 20 -5 11 1 20 5 20 9 0 3 -9 6 -20 5 -11 -1
-20 -5 -20 -9z"/>
<path d="M1820 2869 c0 -5 10 -10 23 -10 12 -1 27 -2 32 -3 37 -6 266 -81 315
-103 92 -41 199 -98 287 -150 52 -32 103 -63 113 -68 10 -6 47 -33 83 -60 l64
-49 2 -55 c1 -75 11 -78 11 -3 l0 61 -57 44 c-215 163 -480 297 -738 372 -85
25 -135 34 -135 24z"/>
<path d="M1025 2853 c-27 -8 -77 -25 -110 -36 -33 -12 -66 -22 -73 -23 -8 -2
-37 -13 -65 -27 -29 -13 -76 -35 -104 -48 -29 -13 -53 -27 -53 -31 0 -4 48 16
108 43 59 28 115 52 124 54 10 2 44 13 75 24 70 24 145 45 156 43 4 -1 7 3 7
8 0 12 -2 12 -65 -7z"/>
<path d="M530 2642 c-82 -48 -179 -113 -251 -169 -46 -36 -56 -49 -58 -76 -1
-17 -3 -49 -4 -69 -1 -21 1 -38 5 -38 6 0 13 93 9 122 -2 18 221 177 327 233
28 15 52 29 52 31 0 9 -19 1 -80 -34z"/>
<path d="M1398 2615 c-2 -2 -30 -5 -63 -8 -211 -21 -376 -70 -570 -169 -69
-36 -256 -155 -268 -172 -8 -11 -1 -304 9 -386 8 -66 31 -211 38 -240 3 -14
10 -47 17 -75 10 -46 43 -160 56 -195 3 -8 7 -19 9 -25 8 -32 63 -153 105
-235 137 -262 348 -489 630 -677 l96 -64 36 20 c122 68 287 200 422 335 171
172 292 344 380 544 40 91 56 130 60 142 0 3 13 43 28 90 15 47 29 95 32 108
3 12 8 32 11 45 3 12 6 29 8 37 4 26 17 104 21 125 2 11 4 25 4 30 1 6 10 -5
21 -22 21 -35 55 -49 91 -38 l23 8 -21 16 c-18 15 -19 20 -7 36 11 14 16 16
28 6 19 -16 30 2 17 27 -17 31 -40 45 -74 44 -61 -2 -62 1 -62 180 l0 163 -69
46 c-231 155 -549 273 -796 295 -63 6 -209 12 -212 9z m203 -49 c30 -3 54 -5
54 -6 0 -1 9 -3 20 -4 44 -6 101 -17 117 -22 9 -3 25 -7 35 -9 10 -2 44 -11
76 -19 32 -9 60 -16 62 -16 3 0 5 -4 5 -10 0 -5 -10 -10 -22 -10 -36 0 -104
-47 -122 -84 -19 -39 -21 -93 -5 -98 7 -2 13 -24 15 -48 3 -44 10 -101 19
-148 2 -13 -2 -25 -10 -28 -7 -3 -92 38 -189 91 -116 64 -182 95 -194 91 -10
-4 -47 -57 -83 -121 -51 -92 -68 -114 -82 -111 -13 3 -24 -5 -35 -25 -11 -18
-23 -27 -33 -24 -20 7 -26 -1 -82 -102 -41 -75 -43 -82 -28 -97 15 -15 13 -19
-19 -43 -99 -73 -346 -360 -327 -379 2 -3 37 -5 76 -5 46 0 69 -4 65 -11 -4
-6 -35 -8 -80 -4 l-75 5 -26 -42 -26 -41 -15 40 c-9 21 -19 41 -24 42 -4 2 -6
7 -4 11 3 4 -8 45 -24 92 -26 79 -62 233 -75 324 -4 22 -8 51 -11 65 -6 34
-15 161 -21 302 l-5 117 67 49 c73 54 250 149 330 177 28 10 55 22 60 25 6 4
35 13 65 20 30 7 62 16 70 20 18 9 69 18 234 39 51 6 153 5 247 -3z m590 -176
c24 -13 25 -29 2 -26 -10 2 -21 -2 -26 -8 -4 -7 -9 -3 -13 12 -4 12 -10 22
-14 22 -4 0 -10 7 -13 15 -5 11 -1 12 19 5 14 -6 34 -15 45 -20z m149 -85 c49
-31 92 -60 96 -66 3 -6 5 -45 4 -87 -1 -42 -3 -101 -4 -129 0 -29 -5 -53 -9
-53 -20 0 -104 55 -125 81 -33 41 -55 51 -88 39 l-27 -11 22 -15 c29 -21 11
-47 -26 -38 -23 6 -25 4 -18 -17 10 -36 43 -60 79 -57 48 3 59 -8 41 -42 l-15
-29 -54 19 c-29 10 -80 23 -112 30 -66 13 -104 33 -104 55 0 31 23 64 48 67
21 2 28 12 43 57 16 50 31 70 53 71 4 0 6 31 4 69 l-3 69 40 13 c22 7 44 16
50 21 12 11 5 14 105 -47z m-250 -26 c0 -5 -7 -9 -15 -9 -9 0 -12 6 -9 15 6
15 24 11 24 -6z m-505 -262 c62 -35 55 -58 -25 -79 -81 -22 -110 -22 -110 -3
0 8 5 15 10 15 6 0 10 6 10 13 0 23 40 77 57 77 10 0 36 -11 58 -23z m-175
-117 c0 -19 -38 -15 -80 8 -57 32 -55 29 -41 46 10 12 20 9 66 -16 30 -16 55
-33 55 -38z m-87 -917 c-7 -2 -19 -2 -25 0 -7 3 -2 5 12 5 14 0 19 -2 13 -5z
m227 -4 c0 -11 -196 -6 -208 6 -3 3 43 5 101 5 71 0 107 -4 107 -11z m393
-170 c-91 -102 -239 -229 -377 -324 -109 -76 -91 -73 -175 -24 -28 16 -26 14
-96 66 l-50 37 74 13 c76 13 191 45 251 71 19 9 40 16 45 18 23 4 265 123 301
148 52 35 62 33 27 -5z"/>
<path d="M1354 2383 c3 -3 32 -7 63 -9 202 -9 304 -14 310 -16 5 -1 23 1 41 5
76 16 10 24 -198 25 -122 0 -219 -2 -216 -5z"/>
<path d="M853 2158 c-2 -5 20 -9 49 -9 66 -2 113 -4 304 -13 130 -6 152 -5
164 8 15 19 44 17 -273 19 -132 1 -241 -1 -244 -5z"/>
<path d="M722 1758 c-9 -4 10 -7 43 -8 64 -2 138 -7 222 -14 34 -3 58 0 70 10
10 7 14 14 8 14 -45 5 -329 4 -343 -2z"/>
<path d="M330 2380 c-23 -23 -24 -29 -10 -64 5 -15 20 -28 35 -32 56 -14 90
67 43 100 -30 21 -44 20 -68 -4z"/>
<path d="M2556 2382 c-32 -36 -8 -102 37 -102 22 0 57 35 57 58 0 48 -63 77
-94 44z"/>
<path d="M2747 2293 c-6 -11 -3 -101 4 -107 2 -3 4 22 4 55 0 60 -1 65 -8 52z"/>
<path d="M217 2235 c-4 -8 -3 -16 1 -19 4 -3 9 4 9 15 2 23 -3 25 -10 4z"/>
<path d="M215 2191 c-3 -5 -1 -12 5 -16 5 -3 10 1 10 9 0 18 -6 21 -15 7z"/>
<path d="M2739 2148 c0 -13 -2 -30 -3 -38 -2 -8 0 -24 5 -35 5 -14 8 -2 8 38
1 31 -1 57 -4 57 -3 0 -5 -10 -6 -22z"/>
<path d="M219 2145 c-3 -11 -2 -33 1 -50 6 -29 6 -29 11 -5 3 14 2 36 -1 50
-6 22 -7 23 -11 5z"/>
<path d="M227 2054 c-6 -6 2 -96 9 -103 2 -2 3 21 2 52 -1 32 -3 57 -3 57 -1
0 -4 -3 -8 -6z"/>
<path d="M2732 1984 c-1 -25 -4 -56 -8 -68 -4 -14 -3 -18 4 -11 12 12 23 125
12 125 -4 0 -8 -21 -8 -46z"/>
<path d="M234 1913 c9 -47 20 -108 21 -115 0 -10 15 -22 15 -12 0 5 -5 29 -11
54 -6 25 -11 57 -11 73 -1 15 -5 27 -10 27 -5 0 -7 -12 -4 -27z"/>
<path d="M2720 1872 c0 -12 0 -24 -1 -27 -1 -2 -5 -24 -11 -47 -17 -77 -19
-88 -8 -88 5 0 9 3 8 8 -1 4 4 42 11 85 8 42 11 80 7 84 -3 3 -6 -3 -6 -15z"/>
<path d="M255 1761 c-3 -6 -1 -11 5 -11 6 0 9 -4 5 -9 -3 -5 -1 -12 4 -16 6
-3 8 4 6 16 -5 27 -11 33 -20 20z"/>
<path d="M269 1694 c8 -16 33 -110 47 -178 2 -11 8 -24 14 -30 6 -6 3 13 -5
41 -8 28 -21 79 -28 114 -7 34 -18 64 -26 67 -9 3 -10 0 -2 -14z"/>
<path d="M2687 1693 c-10 -9 -9 -33 1 -33 4 0 8 9 9 20 2 21 0 24 -10 13z"/>
<path d="M2670 1608 c-7 -24 -16 -56 -21 -72 -10 -32 -12 -52 -4 -44 8 8 46
150 42 154 -2 2 -10 -15 -17 -38z"/>
<path d="M2630 1469 c0 -5 5 -7 10 -4 6 3 10 8 10 11 0 2 -4 4 -10 4 -5 0 -10
-5 -10 -11z"/>
<path d="M330 1467 c0 -1 9 -27 21 -57 12 -30 23 -65 26 -77 3 -13 9 -23 13
-23 10 0 -43 159 -52 160 -5 0 -8 -1 -8 -3z"/>
<path d="M2614 1418 c-7 -36 -85 -225 -111 -273 -15 -27 -15 -29 0 -17 9 8 21
30 28 50 6 20 15 42 19 47 9 11 40 87 70 173 10 28 15 52 10 52 -5 0 -12 -15
-16 -32z"/>
<path d="M390 1296 c0 -14 116 -258 156 -328 61 -107 148 -237 185 -276 9 -9
20 -24 25 -33 9 -16 99 -120 154 -178 62 -65 213 -191 301 -251 116 -80 232
-150 239 -143 3 3 0 8 -7 10 -46 16 -273 170 -369 248 -53 44 -212 200 -259
256 -85 98 -195 256 -255 364 -38 69 -120 233 -120 241 0 10 -40 94 -45 94 -3
0 -5 -2 -5 -4z"/>
<path d="M2480 1095 c0 -8 -3 -15 -7 -15 -5 0 -13 -10 -19 -23 -25 -52 -58
-112 -64 -117 -4 -3 -30 -40 -58 -82 -28 -42 -75 -105 -103 -140 -63 -76 -261
-275 -344 -343 -33 -27 -62 -52 -65 -56 -3 -3 -13 -8 -22 -12 -10 -3 -18 -12
-18 -18 0 -13 1 -13 125 91 84 70 228 210 285 276 86 100 230 302 230 322 0 7
4 12 9 12 5 0 14 12 19 28 6 15 21 42 32 60 12 17 17 32 11 32 -6 0 -11 -7
-11 -15z"/>
<path d="M1439 277 c-26 -20 -29 -54 -7 -82 25 -32 54 -30 80 6 19 25 19 28 4
58 -18 33 -48 41 -77 18z"/>
<path d="M1750 269 c0 -5 5 -7 10 -4 6 3 10 8 10 11 0 2 -4 4 -10 4 -5 0 -10
-5 -10 -11z"/>
<path d="M1698 233 c-21 -14 -38 -31 -38 -37 0 -8 2 -8 8 0 4 6 22 19 40 29
17 11 32 23 32 27 0 10 1 11 -42 -19z"/>
<path d="M1565 144 c-44 -29 -86 -53 -92 -54 -7 0 -13 -4 -13 -10 0 -10 27 -2
45 12 6 5 39 27 75 50 75 48 75 47 69 52 -2 2 -40 -21 -84 -50z"/>
</g>
</svg>
